<?xml version="1.0" standalone="no"?>
<!DOCTYPE svg PUBLIC "-//W3C//DTD SVG 20010904//EN"
 "http://www.w3.org/TR/2001/REC-SVG-20010904/DTD/svg10.dtd">
<svg version="1.0" xmlns="http://www.w3.org/2000/svg"
 width="777.000000pt" height="777.000000pt" viewBox="0 0 777.000000 777.000000"
 preserveAspectRatio="xMidYMid meet">
<metadata>
Created by potrace 1.11, written by Peter Selinger 2001-2013
</metadata>
<g transform="translate(0.000000,777.000000) scale(0.100000,-0.100000)"
fill="#000000" stroke="none">
<path d="M3663 6656 c-113 -12 -156 -34 -166 -81 -5 -27 18 -264 29 -298 3
-10 13 -17 22 -15 14 3 18 18 20 85 3 98 3 98 120 106 91 7 125 20 120 45 -4
18 -28 20 -158 10 -36 -2 -71 -3 -77 0 -17 6 -16 57 1 71 8 6 66 17 130 23
114 11 117 11 147 -11 29 -21 59 -23 59 -3 0 5 -10 24 -23 43 -20 31 -28 34
-72 35 -28 1 -96 -4 -152 -10z"/>
<path d="M4066 6629 c-37 -29 -46 -57 -56 -164 -11 -111 6 -164 57 -189 47
-22 255 -41 285 -25 32 16 58 50 58 77 0 30 -30 29 -61 -4 -22 -23 -28 -25
-84 -19 -81 8 -167 26 -182 38 -17 12 -17 82 0 95 9 8 44 8 120 0 112 -11 136
-6 124 26 -7 17 -17 20 -144 37 -92 12 -93 12 -93 39 0 54 22 59 173 41 77 -9
117 -28 117 -56 0 -18 25 -26 39 -12 19 19 12 62 -14 87 -18 17 -45 26 -107
35 -143 20 -200 19 -232 -6z"/>
<path d="M3207 6584 c-3 -3 -25 -10 -49 -15 -93 -21 -178 -60 -193 -89 -17
-32 -20 -86 -6 -94 5 -3 11 -20 14 -38 5 -31 12 -53 53 -165 27 -74 67 -42 44
34 -7 21 -10 54 -8 73 3 30 7 36 38 43 74 19 172 60 177 74 3 8 1 19 -5 25
-12 12 -51 3 -166 -34 -69 -23 -86 -19 -86 20 0 39 27 61 97 77 32 7 77 19
101 26 38 12 47 11 74 -4 53 -30 75 23 25 58 -21 15 -98 21 -110 9z"/>
<path d="M4609 6527 c-29 -19 -39 -38 -66 -117 -39 -116 -40 -140 -8 -190 22
-35 66 -60 108 -60 4 0 28 -9 52 -20 92 -42 160 -36 210 20 19 22 19 22 0 36
-25 19 -32 18 -52 -6 -20 -24 -47 -25 -105 -6 -24 7 -65 20 -92 27 -55 16 -91
52 -81 84 3 11 13 48 21 82 17 67 46 113 71 113 17 0 88 -20 178 -49 41 -14
53 -23 68 -55 22 -47 51 -46 55 2 3 27 -3 39 -34 67 -21 19 -54 38 -73 41 -20
4 -66 18 -103 31 -84 29 -106 29 -149 0z"/>
<path d="M2610 6350 c-41 -22 -88 -46 -105 -54 -51 -24 -74 -57 -76 -108 -2
-40 6 -59 54 -140 31 -52 67 -100 81 -107 36 -20 94 -7 167 37 35 21 78 44 96
51 40 16 65 53 66 97 1 44 -25 73 -48 54 -9 -7 -13 -21 -10 -31 9 -29 -10 -53
-62 -79 -26 -13 -67 -37 -90 -52 -60 -40 -97 -37 -122 10 -16 30 -6 58 27 75
153 80 179 101 149 125 -13 11 -13 11 -156 -65 -55 -28 -78 -29 -86 -2 -13 42
3 65 67 99 148 76 140 73 175 61 40 -15 56 -7 47 22 -18 58 -73 60 -174 7z"/>
<path d="M5108 6353 c-20 -5 -34 -41 -21 -54 6 -6 20 -6 36 2 21 10 31 8 59
-8 18 -10 34 -28 36 -40 2 -11 -15 -51 -37 -87 -23 -37 -41 -68 -41 -71 0 -2
-11 -21 -25 -41 -30 -44 -33 -84 -7 -84 20 0 58 49 110 140 17 30 42 68 55 84
l24 30 34 -20 c24 -14 38 -32 47 -62 21 -65 61 -52 62 20 0 21 -52 83 -85 100
-12 7 -56 32 -96 55 -70 40 -104 49 -151 36z"/>
<path d="M3690 6199 c-52 -4 -115 -11 -140 -17 -25 -6 -75 -14 -113 -17 -37
-4 -70 -11 -73 -16 -3 -5 -12 -9 -21 -9 -36 0 -263 -75 -383 -127 -105 -46
-321 -162 -340 -183 -3 -4 -27 -21 -55 -39 -149 -100 -367 -302 -461 -428 -16
-21 -37 -47 -47 -57 -23 -26 -146 -210 -174 -261 -118 -212 -226 -476 -248
-605 -3 -19 -14 -71 -25 -115 -33 -143 -40 -217 -41 -430 -1 -150 4 -240 16
-315 9 -58 20 -133 26 -168 15 -100 79 -319 109 -374 6 -10 10 -23 10 -29 0
-15 124 -263 150 -299 11 -16 23 -41 26 -57 5 -27 3 -29 -53 -47 -32 -10 -71
-22 -88 -27 -45 -12 -233 -68 -295 -88 -53 -18 -243 -85 -480 -171 -63 -23
-153 -55 -200 -72 -103 -37 -315 -123 -352 -143 -14 -8 -32 -15 -38 -15 -13 0
-117 -42 -162 -66 -14 -8 -33 -14 -42 -14 -9 0 -16 -4 -16 -9 0 -5 -10 -11
-23 -15 -12 -3 -28 -14 -34 -25 -17 -27 6 -79 46 -106 28 -18 37 -33 55 -89 9
-27 41 -18 190 53 70 34 130 61 133 61 4 0 25 9 47 19 23 10 59 27 81 36 22 9
48 21 58 26 9 5 68 30 130 55 61 25 122 52 134 60 12 8 27 14 33 14 11 0 89
32 120 49 9 5 30 12 48 16 18 4 70 24 116 45 45 21 118 50 162 65 69 24 219
80 279 105 11 5 31 11 45 13 14 3 50 15 80 26 94 36 153 49 178 38 12 -6 22
-14 22 -19 0 -6 19 -29 43 -53 74 -74 109 -124 102 -144 -4 -12 -31 -27 -83
-45 -42 -15 -84 -31 -93 -36 -9 -4 -36 -14 -59 -20 -51 -14 -60 -5 -53 50 6
43 -12 106 -32 114 -32 12 -177 -49 -189 -79 -3 -9 -6 -30 -6 -46 0 -78 -38
-180 -80 -216 -35 -29 -38 -56 -13 -125 16 -46 16 -49 -4 -100 -92 -228 -131
-365 -119 -411 20 -81 151 -7 186 106 8 23 17 47 20 52 4 6 13 35 20 65 14 66
95 239 113 242 6 0 23 2 37 3 14 1 71 10 127 19 56 9 114 15 128 14 36 -3 74
-40 81 -78 8 -37 18 -44 44 -30 26 14 80 108 80 141 0 35 -39 92 -70 100 -14
4 -64 7 -112 8 -48 1 -90 6 -93 11 -4 6 11 17 32 26 58 24 236 103 256 114 12
8 28 5 56 -10 22 -11 41 -23 43 -28 1 -4 18 -18 36 -31 43 -30 40 -53 -10 -93
-106 -85 -125 -117 -98 -168 22 -41 109 -41 240 -1 19 6 68 20 109 31 l74 20
71 -31 c135 -60 181 -84 181 -97 0 -7 -27 -22 -60 -33 -33 -11 -73 -26 -90
-33 -16 -7 -59 -23 -95 -36 -36 -12 -108 -39 -160 -60 -52 -21 -126 -51 -165
-65 -138 -52 -297 -115 -550 -219 -16 -7 -52 -22 -80 -33 -27 -12 -106 -47
-175 -78 -153 -70 -316 -140 -350 -150 -14 -4 -47 -19 -74 -32 -41 -21 -47
-27 -33 -35 13 -7 40 0 100 25 102 43 310 126 358 143 20 7 61 24 92 38 31 14
62 26 69 26 7 0 27 8 43 18 17 10 53 27 80 36 28 10 64 24 80 31 17 7 59 24
95 38 36 13 126 48 200 77 174 68 369 138 445 160 33 9 67 19 75 22 82 30 310
98 328 98 13 0 34 11 48 25 31 31 32 31 44 0 7 -19 17 -25 38 -25 16 0 42 -6
58 -14 16 -8 67 -20 114 -26 47 -6 108 -16 135 -21 28 -6 100 -12 160 -15 61
-3 115 -5 120 -6 36 -2 287 15 320 22 22 4 72 13 110 20 39 6 79 15 90 20 11
4 47 13 80 20 74 15 203 57 232 76 15 9 21 22 20 41 -2 23 2 29 24 31 20 2 28
-2 32 -17 7 -27 38 -27 120 -2 34 10 100 28 147 40 122 29 317 83 452 125 65
20 125 36 133 36 8 0 23 5 33 10 9 6 78 31 152 55 134 45 165 54 375 114 61
17 153 44 205 61 147 45 499 132 610 150 30 5 80 14 110 21 61 13 130 25 203
35 37 5 47 11 45 23 -4 21 -66 20 -168 -3 -14 -3 -52 -8 -85 -11 -69 -6 -200
-28 -295 -49 -297 -66 -489 -114 -655 -166 -125 -39 -223 -68 -270 -81 -76
-21 -210 -62 -280 -86 -38 -13 -90 -29 -115 -34 -25 -5 -63 -16 -85 -23 -22
-8 -67 -19 -100 -26 -33 -7 -70 -16 -82 -21 -35 -13 -39 10 -7 37 16 14 54 42
84 63 30 21 84 65 120 98 94 85 116 98 236 142 141 51 159 54 177 37 8 -8 31
-21 51 -30 33 -14 43 -13 119 5 101 26 154 56 226 128 42 42 61 71 76 116 17
50 25 61 50 68 17 5 53 18 80 28 28 11 80 26 115 34 36 8 99 23 140 35 41 11
107 27 145 35 39 8 112 23 164 34 52 12 110 21 128 21 19 0 42 4 51 9 9 5 59
11 110 14 60 4 102 11 117 21 16 11 26 12 30 5 8 -13 225 -2 240 12 6 6 3 16
-8 27 -14 14 -35 17 -110 16 -51 0 -108 -1 -127 -2 -80 -6 -188 13 -220 37
-27 19 -40 22 -79 17 -136 -17 -399 -86 -694 -183 -160 -52 -173 -54 -240 -48
-66 6 -77 4 -135 -24 -45 -22 -87 -54 -142 -111 -70 -72 -143 -121 -157 -106
-6 6 47 91 110 178 20 28 37 56 37 62 0 5 6 17 14 25 17 20 116 211 116 224 0
6 25 36 55 68 58 61 65 81 38 111 -15 16 -15 23 -4 54 7 20 17 59 21 87 5 29
21 106 36 172 23 105 27 147 31 345 4 250 -5 344 -60 570 -79 332 -252 685
-465 949 -103 128 -239 266 -327 334 -44 34 -84 66 -90 72 -18 21 -183 135
-194 135 -6 0 -11 4 -11 9 0 14 -280 149 -395 191 -33 12 -67 25 -75 29 -9 5
-36 12 -60 16 -25 4 -49 11 -55 15 -12 9 -127 38 -203 51 -214 35 -395 44
-622 28z m530 -79 c25 -6 74 -15 110 -20 80 -10 250 -57 270 -74 8 -8 22 -13
31 -13 43 1 277 -108 417 -195 126 -78 234 -161 380 -291 166 -149 289 -302
425 -532 53 -88 140 -267 179 -370 54 -136 126 -400 120 -439 -1 -11 2 -33 8
-50 18 -58 22 -145 18 -496 0 -8 -6 -51 -14 -95 -8 -44 -19 -107 -25 -140 -6
-33 -15 -69 -20 -80 -5 -11 -13 -32 -19 -47 -11 -33 -2 -32 -201 -13 -155 15
-327 44 -429 72 -30 8 -73 19 -95 23 -57 12 -76 20 -110 45 -16 12 -40 25 -53
29 -12 4 -33 18 -45 30 -31 32 -50 37 -82 20 -15 -8 -30 -12 -32 -10 -11 11
21 117 57 194 64 133 53 162 -54 146 -35 -6 -119 -10 -185 -9 -97 0 -124 3
-132 15 -5 9 -8 80 -7 170 l3 155 59 100 c33 55 70 122 84 149 35 71 78 212
86 277 5 48 3 60 -15 83 -18 23 -28 26 -80 26 -35 0 -59 4 -59 11 0 22 49 94
108 161 26 28 26 39 3 188 -6 36 -13 115 -17 175 -8 140 -12 147 -72 144 -41
-3 -47 -1 -50 18 -2 15 6 26 34 39 20 11 44 31 53 47 15 26 14 29 -32 120 -27
50 -57 103 -68 116 -25 30 -38 20 -79 -62 -17 -34 -37 -71 -45 -81 -24 -32
-29 -10 -6 29 42 71 19 130 -42 107 -29 -11 -33 -10 -60 23 -60 73 -92 67
-164 -29 -26 -36 -51 -66 -54 -66 -4 0 -12 21 -19 48 -7 26 -18 53 -23 60 -16
21 -60 10 -73 -18 -7 -14 -22 -49 -35 -77 -27 -59 -39 -67 -39 -24 0 15 -10
43 -23 62 -32 48 -74 57 -184 37 -71 -13 -91 -13 -103 -3 -8 7 -25 16 -37 19
-18 6 -22 2 -28 -23 -10 -44 -25 -48 -54 -14 -14 17 -37 36 -50 43 -20 10 -27
9 -50 -8 -26 -20 -29 -36 -16 -79 10 -33 -19 -30 -42 3 -62 89 -93 103 -93 43
0 -39 -27 -39 -65 1 l-29 31 -122 -3 c-134 -4 -158 -13 -148 -55 7 -25 7 -25
-24 -9 -17 9 -33 16 -36 16 -13 0 -25 -81 -18 -116 7 -33 15 -42 53 -62 52
-25 178 -32 261 -13 69 16 146 17 160 3 9 -9 7 -16 -7 -32 -10 -10 -25 -22
-34 -25 -16 -5 -51 -73 -51 -99 0 -7 7 -19 15 -26 28 -23 63 7 99 85 19 38 36
78 39 88 14 40 38 31 115 -47 82 -82 108 -92 139 -53 14 18 24 22 46 18 l29
-6 -25 -36 c-35 -52 -41 -75 -22 -91 35 -30 45 -40 45 -48 0 -7 -41 -37 -106
-76 -35 -21 -8 -24 43 -5 114 42 277 184 333 292 11 20 26 39 35 42 12 5 15
-2 15 -41 0 -89 29 -91 85 -8 51 75 64 90 71 84 3 -4 -2 -22 -11 -42 -40 -83
7 -100 74 -27 56 61 88 71 60 20 -21 -40 -19 -59 6 -65 13 -3 28 -3 33 0 15 9
96 -5 117 -20 16 -12 18 -18 7 -34 -7 -12 -12 -55 -12 -105 0 -46 -7 -135 -16
-196 -16 -117 -13 -159 10 -159 8 0 26 -14 40 -31 31 -37 32 -65 10 -202 -19
-112 -12 -137 28 -100 13 11 33 26 45 32 13 6 27 28 34 51 7 22 13 40 15 40 2
0 24 -14 49 -31 l47 -32 -7 -81 c-5 -67 -13 -96 -47 -166 -43 -89 -119 -180
-149 -180 -25 0 -35 -24 -42 -96 -9 -84 -14 -96 -38 -83 -26 14 -36 6 -44 -38
-15 -88 -58 -177 -115 -243 -174 -200 -286 -313 -342 -341 -37 -19 -51 -21
-118 -14 -41 4 -102 9 -135 11 -124 8 -147 19 -217 97 -35 40 -66 73 -70 75
-18 8 -118 142 -137 182 -11 25 -32 85 -47 133 -21 74 -31 92 -55 105 -26 15
-29 23 -29 65 0 26 -6 63 -14 82 -15 34 -20 37 -97 50 -34 5 -36 7 -35 43 1
31 -2 37 -22 40 -13 2 -30 -2 -39 -9 -13 -11 -17 -10 -29 5 -21 30 -63 147
-78 217 -18 90 -10 118 43 146 52 27 61 28 61 8 0 -46 58 -114 98 -115 26 0
27 8 11 162 -10 99 -9 110 11 155 11 27 34 61 50 77 33 31 34 38 19 146 -6 41
-10 111 -10 155 0 85 -2 94 -34 111 -12 7 -20 23 -21 40 -1 16 -2 37 -3 47 -2
25 -168 104 -190 90 -24 -15 -36 -118 -18 -146 13 -19 11 -26 -10 -67 -13 -25
-33 -79 -44 -120 -11 -41 -24 -86 -29 -100 -5 -14 -12 -43 -15 -66 -6 -38 -3
-45 43 -99 41 -48 112 -168 112 -189 0 -3 -11 -6 -25 -6 -43 0 -101 -36 -119
-74 -44 -93 6 -311 107 -462 41 -63 85 -94 131 -94 13 0 26 -6 29 -13 11 -29
-5 -584 -19 -657 -6 -34 -74 -70 -199 -104 -55 -16 -109 -32 -120 -37 -25 -11
-83 -25 -210 -51 -55 -11 -120 -25 -145 -32 l-45 -12 0 -140 c0 -76 -4 -149
-8 -162 -7 -19 -57 -58 -136 -107 -9 -5 -32 -20 -52 -32 -32 -21 -46 -23 -178
-23 l-142 0 -15 38 c-8 20 -26 57 -38 82 -72 137 -144 346 -185 535 -78 360
-44 827 83 1167 20 53 36 98 36 101 0 22 159 327 209 402 17 25 31 49 31 54 0
4 8 16 18 27 10 10 33 40 52 65 84 110 229 264 305 324 17 13 49 41 73 63 23
22 60 51 81 64 22 13 86 54 143 93 142 96 321 184 463 229 66 21 131 42 145
47 32 12 107 26 250 49 93 14 162 17 360 15 141 -2 264 -8 290 -15z m-211
-376 c3 -2 -6 -15 -19 -29 -21 -22 -25 -23 -40 -10 -14 12 -19 13 -35 2 -14
-11 -17 -23 -13 -65 6 -58 -3 -58 -32 -2 -37 73 -22 100 60 113 24 4 70 -2 79
-9z m616 -1816 c9 -257 21 -373 65 -631 l22 -128 -38 -62 c-21 -34 -86 -133
-144 -221 -58 -87 -116 -175 -129 -195 -49 -73 -194 -242 -264 -307 -90 -83
-122 -97 -205 -92 -64 4 -82 15 -82 50 0 15 4 16 26 8 42 -16 71 -12 104 16
48 41 111 174 124 264 7 46 20 108 36 170 6 19 22 87 36 150 15 63 35 132 46
152 10 21 18 50 18 66 0 16 8 40 18 53 20 26 82 151 82 166 0 9 62 133 135
268 24 44 57 125 73 180 35 117 60 181 68 172 4 -3 7 -39 9 -79z m-1295 -41
c0 -38 73 -151 192 -299 157 -194 187 -212 358 -217 52 -1 102 -7 111 -12 56
-30 209 26 276 101 52 57 68 52 39 -13 -68 -149 -150 -358 -176 -448 -11 -41
-25 -83 -29 -94 -5 -11 -15 -45 -24 -75 -9 -30 -22 -77 -30 -105 -8 -27 -18
-67 -21 -88 -16 -91 -89 -207 -130 -207 -29 0 -48 16 -81 69 -23 38 -29 42
-41 29 -12 -12 -13 -20 -3 -41 18 -39 6 -54 -74 -92 l-74 -35 -89 31 c-49 17
-109 37 -134 44 -99 28 -209 80 -217 102 -6 16 53 83 74 83 13 0 160 93 199
127 16 13 24 35 29 75 6 56 5 58 -20 70 -20 9 -55 9 -153 0 -72 -6 -131 -7
-136 -2 -20 20 21 299 65 443 28 91 31 115 40 315 4 119 9 237 9 262 l1 45 19
-24 c11 -13 20 -32 20 -44z m2748 -814 c2 -12 -4 -34 -12 -50 -32 -61 -293
-311 -456 -438 -35 -27 -94 -79 -132 -114 -72 -68 -83 -96 -53 -135 13 -17 21
-18 97 -8 46 6 85 9 87 6 6 -5 -21 -26 -78 -60 -28 -17 -64 -28 -102 -31 -65
-6 -89 5 -89 41 0 12 -6 30 -13 40 -15 20 -22 17 -151 -64 -120 -76 -288 -132
-350 -116 -27 7 -49 55 -35 77 13 21 11 39 -4 39 -13 0 -203 -80 -242 -102
-11 -7 -54 -31 -96 -55 -42 -24 -82 -43 -89 -43 -7 0 -32 -13 -57 -30 -48 -33
-63 -36 -81 -18 -19 19 -14 40 18 91 17 26 30 52 30 57 0 17 -57 11 -102 -9
-24 -11 -77 -32 -118 -47 -41 -14 -103 -38 -136 -51 -67 -27 -141 -28 -200 -3
-41 17 -73 8 -116 -34 -51 -49 -98 -76 -134 -76 -33 0 -44 13 -44 55 0 30 -26
39 -48 17 -9 -9 -42 -35 -72 -57 -30 -21 -57 -42 -60 -45 -9 -11 -125 -75
-160 -88 -49 -19 -112 -16 -127 5 -7 9 -13 34 -13 55 0 47 -13 49 -95 12 -51
-22 -60 -23 -73 -11 -8 9 -12 20 -8 25 3 6 50 32 104 60 53 27 115 59 137 72
22 13 60 34 85 48 25 13 52 30 60 37 28 23 60 28 67 9 4 -12 -11 -33 -55 -76
-73 -69 -84 -108 -31 -108 19 0 45 11 68 29 20 16 73 54 119 85 89 61 89 61
172 131 30 25 77 61 105 80 48 32 52 33 108 25 90 -13 104 -34 70 -106 -17
-35 -17 -36 2 -51 35 -26 145 -12 206 26 28 17 53 31 57 31 4 0 18 6 32 13
190 100 247 131 260 142 28 23 99 55 124 55 38 0 40 -29 5 -105 -37 -82 -28
-95 40 -61 25 13 63 29 84 35 20 7 37 17 37 22 0 5 5 9 11 9 6 0 45 16 86 35
41 19 79 35 84 35 19 0 146 43 183 62 21 11 67 40 103 64 93 62 164 80 182 46
15 -29 2 -61 -28 -68 -14 -4 -33 -12 -41 -19 -8 -7 -37 -25 -65 -40 -27 -16
-60 -37 -72 -48 -29 -26 -30 -57 -3 -57 18 0 138 55 150 69 12 14 70 51 80 51
5 0 10 4 10 10 0 5 18 19 40 30 23 12 43 27 46 35 3 8 29 29 57 47 29 18 59
40 68 48 8 8 101 96 205 195 104 99 209 202 234 229 25 26 54 52 65 57 33 13
60 6 63 -18z m-2955 -278 c-2 -21 -9 -44 -15 -51 -11 -10 -79 -25 -228 -49
-19 -3 -80 -16 -135 -29 -55 -13 -134 -31 -175 -40 -41 -9 -97 -23 -125 -31
-58 -16 -161 -42 -222 -55 -23 -5 -58 -16 -78 -25 -49 -20 -77 -19 -101 4 -30
27 -50 79 -36 93 34 34 698 181 947 209 50 5 95 12 100 14 6 2 24 3 40 2 28
-2 30 -4 28 -42z m-38 -215 c0 -40 -4 -46 -45 -76 -25 -18 -48 -33 -52 -33 -3
-1 -61 -35 -128 -76 -67 -41 -124 -75 -126 -75 -2 0 -78 -37 -168 -81 -127
-63 -171 -80 -190 -75 -28 7 -61 49 -52 65 4 5 73 42 154 81 81 40 154 76 162
81 8 5 51 28 95 50 44 23 87 49 95 59 8 9 22 17 30 17 19 0 103 48 120 68 7 8
20 15 29 15 10 0 26 7 37 15 29 22 39 13 39 -35z m3088 -58 c-24 -32 -66 -58
-108 -67 l-30 -6 26 23 c14 13 35 29 45 36 87 58 103 62 67 14z m-3169 -184
c23 -74 14 -89 -72 -113 -31 -9 -61 -20 -67 -25 -25 -19 -117 -42 -127 -32
-13 13 47 75 102 107 62 36 95 57 105 66 14 13 55 11 59 -3z m-350 -317 c10
-16 -5 -41 -24 -41 -25 0 -35 18 -20 35 14 17 36 20 44 6z m1469 -194 c7 -21
4 -37 -12 -69 -22 -45 -16 -72 19 -83 22 -7 117 2 165 15 17 4 75 16 130 26
55 9 108 21 119 26 19 10 46 -5 32 -19 -8 -8 -145 -39 -256 -58 -41 -7 -86
-17 -100 -22 -14 -5 -56 -9 -95 -8 l-70 0 0 65 c-1 87 -1 87 -32 95 -30 7
-326 -29 -423 -52 -83 -19 -173 -27 -165 -13 3 5 14 10 23 10 9 0 37 8 62 16
25 9 72 20 105 25 33 4 85 13 115 19 169 34 318 58 349 56 17 -1 27 -9 34 -29z
m587 -66 c0 -7 -81 -31 -105 -31 -22 0 -18 16 8 27 24 12 97 15 97 4z m-1315
-51 c-3 -5 -10 -10 -16 -10 -5 0 -9 5 -9 10 0 6 7 10 16 10 8 0 12 -4 9 -10z"/>
<path d="M3408 4927 c-104 -14 -117 -23 -100 -70 7 -18 12 -52 12 -75 0 -47
54 -171 95 -220 14 -17 46 -40 72 -52 41 -19 57 -21 117 -15 111 11 150 40
203 147 32 67 30 90 -9 106 -62 25 -83 38 -86 55 -5 25 25 22 81 -9 47 -24 50
-25 82 -10 41 20 73 20 118 1 30 -12 37 -21 43 -52 16 -95 37 -138 90 -189 44
-43 62 -53 113 -64 34 -7 76 -9 98 -5 63 12 141 95 171 183 15 45 1 72 -37 72
-51 0 -89 19 -100 52 -6 17 -11 35 -11 40 0 5 42 8 93 7 52 -1 99 1 105 5 16
10 15 51 0 64 -13 10 -81 17 -261 27 -84 5 -134 -2 -223 -30 -30 -10 -52 -11
-85 -4 -24 6 -72 8 -105 4 -47 -5 -71 -2 -100 11 -22 9 -55 18 -74 20 -113 11
-226 11 -302 1z"/>
<path d="M3873 4349 c-13 -4 -23 -13 -23 -19 0 -13 47 -13 56 1 10 17 -9 28
-33 18z"/>
<path d="M3796 4323 c-11 -11 -6 -23 9 -23 8 0 15 4 15 9 0 13 -16 22 -24 14z"/>
<path d="M3965 4255 c-45 -44 -30 -71 28 -53 50 15 74 42 57 63 -19 22 -58 18
-85 -10z"/>
<path d="M3755 4250 c-12 -13 -15 -24 -9 -30 17 -17 117 -48 133 -42 14 6 14
7 -1 10 -10 2 -18 11 -18 21 0 22 -27 48 -60 56 -19 4 -31 1 -45 -15z"/>
<path d="M3845 4140 c-28 -7 -121 -46 -172 -72 -13 -6 -30 -22 -39 -36 -15
-22 -15 -27 3 -59 22 -41 48 -49 94 -30 25 10 83 14 212 15 97 0 182 4 187 7
15 9 41 75 34 86 -9 15 -94 55 -147 69 -26 7 -50 17 -53 21 -6 11 -77 10 -119
-1z m128 -102 c35 -18 1 -30 -92 -32 -50 0 -90 3 -88 8 2 5 23 17 47 27 46 18
97 17 133 -3z"/>
<path d="M3895 3886 c-17 -7 -36 -20 -43 -29 -19 -22 -6 -40 21 -30 12 4 40 8
62 8 50 0 60 27 18 48 -23 13 -34 13 -58 3z"/>
<path d="M3628 2237 c-77 -66 -115 -147 -70 -147 48 0 155 106 150 149 -4 38
-36 37 -80 -2z"/>
<path d="M5547 6122 c-21 -23 -22 -52 -2 -52 20 0 57 38 52 53 -6 20 -32 19
-50 -1z"/>
<path d="M5630 5937 c-63 -61 -50 -106 67 -225 79 -82 96 -121 67 -153 -31
-34 -67 -24 -127 36 -96 95 -109 117 -102 169 6 37 4 47 -9 52 -30 12 -56 -24
-56 -76 0 -57 12 -74 125 -182 75 -73 83 -78 124 -78 37 0 49 6 82 39 32 32
39 46 39 77 0 40 -20 68 -143 199 -29 31 -37 47 -35 70 3 25 8 30 34 33 26 3
39 -7 101 -73 62 -66 73 -83 83 -131 9 -42 15 -54 28 -52 23 4 36 48 28 93 -6
30 -27 58 -99 131 -84 86 -96 94 -134 97 -36 3 -48 -1 -73 -26z"/>
<path d="M1863 5778 c-83 -79 -153 -176 -153 -213 1 -42 16 -64 90 -132 36
-32 81 -73 100 -91 19 -18 42 -31 50 -30 25 5 23 38 -4 65 -14 14 -26 32 -26
40 0 19 29 73 39 73 4 0 14 12 21 26 35 63 128 102 181 73 26 -13 61 -2 57 19
-3 18 -38 38 -80 47 -19 3 -30 14 -38 39 -20 62 -114 136 -173 136 -5 0 -33
-24 -64 -52z m151 -59 c29 -48 25 -56 -120 -217 l-31 -34 -32 17 c-40 20 -65
73 -52 107 5 13 43 58 83 101 72 74 76 77 104 67 17 -6 38 -24 48 -41z"/>
<path d="M1550 5372 c0 -28 19 -47 90 -92 42 -28 85 -59 96 -71 25 -28 92 -62
110 -55 39 15 6 49 -161 164 -75 51 -135 76 -135 54z"/>
<path d="M6238 5210 c-14 -4 -39 -15 -55 -23 -15 -8 -59 -30 -96 -48 -101 -50
-105 -57 -75 -121 14 -29 42 -89 62 -133 44 -94 67 -122 114 -135 43 -11 99
14 132 60 15 21 30 30 50 30 21 0 37 10 59 37 17 21 31 44 31 53 0 8 -21 63
-46 123 -32 74 -57 116 -81 137 -35 31 -49 34 -95 20z m81 -79 c12 -16 21 -34
21 -39 0 -6 11 -34 25 -64 27 -58 32 -110 13 -126 -28 -21 -55 7 -106 110 -29
56 -52 106 -52 110 0 4 7 14 16 22 25 25 60 20 83 -13z m-113 -108 c19 -43 41
-90 49 -105 16 -27 19 -65 9 -92 -4 -11 -19 -16 -49 -16 l-43 0 -47 94 c-57
112 -64 163 -25 183 54 28 69 19 106 -64z"/>
<path d="M1449 5150 c-19 -10 -41 -31 -48 -47 -60 -126 -91 -209 -91 -243 0
-33 6 -43 43 -73 23 -19 78 -48 122 -66 44 -18 90 -37 101 -43 61 -30 82 23
22 55 -31 15 -38 24 -38 49 0 16 6 44 14 61 8 18 29 63 46 102 17 38 35 72 41
76 6 3 30 -1 54 -10 34 -12 47 -13 56 -4 20 20 2 42 -58 69 -32 15 -91 42
-131 60 -84 39 -85 39 -133 14z m112 -71 c34 -24 36 -41 9 -109 -44 -111 -81
-180 -96 -180 -9 0 -34 10 -55 22 -35 20 -39 25 -39 63 0 22 4 45 8 51 5 5 17
32 27 59 30 86 53 115 87 115 16 0 43 -9 59 -21z"/>
<path d="M6437 4740 c-66 -21 -82 -32 -103 -72 -12 -23 -13 -35 -3 -68 11 -35
10 -42 -6 -60 -10 -11 -24 -20 -32 -20 -27 0 -52 -20 -46 -36 5 -13 15 -15 49
-10 49 6 70 -8 80 -52 17 -82 54 -101 156 -84 83 14 110 27 106 50 -4 23 -47
26 -103 7 -65 -21 -95 -7 -111 55 -47 186 -46 181 -30 206 10 15 29 25 53 29
61 10 103 32 103 55 0 25 -32 25 -113 0z"/>
<path d="M1223 4634 c-7 -19 21 -44 48 -44 24 0 67 -20 72 -34 4 -12 -36 -230
-48 -259 -7 -17 -15 -18 -76 -12 -66 7 -69 6 -69 -14 0 -32 41 -44 240 -76
104 -17 120 -15 120 14 0 19 -12 23 -127 47 -19 3 -23 11 -23 39 0 19 4 54 10
77 5 24 14 69 20 100 15 77 26 84 107 71 69 -12 93 -9 93 12 0 24 -26 34 -178
64 -177 36 -181 36 -189 15z"/>
<path d="M6487 4163 c-10 -9 -8 -43 2 -43 5 0 14 6 20 14 8 10 8 16 -2 25 -8
6 -17 8 -20 4z"/>
<path d="M6380 4130 c0 -13 5 -20 13 -17 6 2 12 10 12 17 0 7 -6 15 -12 18 -8
2 -13 -5 -13 -18z"/>
<path d="M7040 1076 c0 -2 8 -10 18 -17 15 -13 16 -12 3 4 -13 16 -21 21 -21
13z"/>
</g>
</svg>
